HIERARCHY
ROOT newVegas:Hips
{
	OFFSET 0.000000 96.479958 0.000000
	CHANNELS 6 Xposition Yposition Zposition Xrotation Yrotation Zrotation
	JOINT newVegas:Pelvis
	{
		OFFSET 0.000000 0.000000 0.000000
		CHANNELS 3 Xrotation Yrotation Zrotation
		JOINT newVegas:LeftUpLeg
		{
			OFFSET 18.735201 -5.666702 -4.541200
			CHANNELS 3 Xrotation Yrotation Zrotation
			JOINT newVegas:LeftLeg
			{
				OFFSET -0.021200 -31.938179 0.493100
				CHANNELS 3 Xrotation Yrotation Zrotation
				JOINT newVegas:LeftFoot
				{
					OFFSET 0.021200 -31.938179 -4.336299
					CHANNELS 3 Xrotation Yrotation Zrotation
					JOINT newVegas:LeftToeBase
					{
						OFFSET 0.943001 -26.722000 15.023500
						CHANNELS 3 Xrotation Yrotation Zrotation
						End Site
						{
							OFFSET 0.000000 30.670183 0.000000
						}
					}
				}
				JOINT newVegas:Left_PantLeg
				{
					OFFSET 0.663870 -9.044666 -1.108900
					CHANNELS 3 Xrotation Yrotation Zrotation
					End Site
					{
						OFFSET 1.415995 20.635357 0.000000
					}
				}
			}
		}
		JOINT newVegas:RightUpLeg
		{
			OFFSET -18.735201 -5.666702 -4.541200
			CHANNELS 3 Xrotation Yrotation Zrotation
			JOINT newVegas:RightLeg
			{
				OFFSET 0.018946 -31.938133 0.493100
				CHANNELS 3 Xrotation Yrotation Zrotation
				JOINT newVegas:RightFoot
				{
					OFFSET -0.018946 -31.938126 -4.336299
					CHANNELS 3 Xrotation Yrotation Zrotation
					JOINT newVegas:RightToeBase
					{
						OFFSET -0.943001 -26.722004 15.023500
						CHANNELS 3 Xrotation Yrotation Zrotation
						End Site
						{
							OFFSET 0.000000 30.670187 0.000000
						}
					}
				}
				JOINT newVegas:Right_PantLeg
				{
					OFFSET -0.661674 -9.044716 -1.108900
					CHANNELS 3 Xrotation Yrotation Zrotation
					End Site
					{
						OFFSET -1.415958 20.635269 0.000000
					}
				}
			}
		}
	}
	JOINT newVegas:Spine
	{
		OFFSET 0.000000 10.199997 -0.299500
		CHANNELS 3 Xrotation Yrotation Zrotation
		JOINT newVegas:Spine1
		{
			OFFSET 0.000000 11.900002 -1.516600
			CHANNELS 3 Xrotation Yrotation Zrotation
			JOINT newVegas:Spine2
			{
				OFFSET 0.000000 13.600006 -2.842500
				CHANNELS 3 Xrotation Yrotation Zrotation
				JOINT newVegas:Neck
				{
					OFFSET 0.000000 9.624100 -2.890100
					CHANNELS 3 Xrotation Yrotation Zrotation
					JOINT newVegas:Head
					{
						OFFSET 0.000000 14.068802 -1.351900
						CHANNELS 3 Xrotation Yrotation Zrotation
						JOINT newVegas:Hair_Back
						{
							OFFSET 0.000000 3.231903 -17.524799
							CHANNELS 3 Xrotation Yrotation Zrotation
							End Site
							{
								OFFSET 0.000000 19.849884 0.000000
							}
						}
						JOINT newVegas:Hair_Front
						{
							OFFSET 0.000000 31.260406 4.573800
							CHANNELS 3 Xrotation Yrotation Zrotation
							JOINT newVegas:Hair_Front1
							{
								OFFSET 0.000000 2.284103 11.993300
								CHANNELS 3 Xrotation Yrotation Zrotation
								JOINT newVegas:Hair_Front2
								{
									OFFSET 0.000000 2.284103 11.993300
									CHANNELS 3 Xrotation Yrotation Zrotation
									End Site
									{
										OFFSET 0.000000 12.208862 0.000000
									}
								}
							}
						}
						JOINT newVegas:Jowel
						{
							OFFSET 0.000000 -7.458206 6.864100
							CHANNELS 3 Xrotation Yrotation Zrotation
							End Site
							{
								OFFSET 0.000000 19.849884 0.000000
							}
						}
					}
				}
				JOINT newVegas:LeftShoulder
				{
					OFFSET 15.263000 10.923401 -0.547700
					CHANNELS 3 Xrotation Yrotation Zrotation
					JOINT newVegas:LeftArm
					{
						OFFSET 25.438599 -2.830597 -13.032500
						CHANNELS 3 Xrotation Yrotation Zrotation
						JOINT newVegas:LeftForeArm
						{
							OFFSET 29.960503 0.000000 0.000000
							CHANNELS 3 Xrotation Yrotation Zrotation
							JOINT newVegas:LeftHand
							{
								OFFSET 27.849251 0.000000 0.000000
								CHANNELS 3 Xrotation Yrotation Zrotation
								JOINT newVegas:LeftHandThumb1
								{
									OFFSET 4.487587 -3.305161 6.305391
									CHANNELS 3 Xrotation Yrotation Zrotation
									JOINT newVegas:LeftHandThumb2
									{
										OFFSET 5.480453 -3.164139 3.164143
										CHANNELS 3 Xrotation Yrotation Zrotation
										JOINT newVegas:LeftHandThumb3
										{
											OFFSET 5.159721 -2.978973 2.978967
											CHANNELS 3 Xrotation Yrotation Zrotation
											End Site
											{
												OFFSET 2.494507 5.926697 1.738678
											}
										}
									}
								}
								JOINT newVegas:LeftHandIndex1
								{
									OFFSET 18.578728 -0.527832 5.208049
									CHANNELS 3 Xrotation Yrotation Zrotation
									JOINT newVegas:LeftHandIndex2
									{
										OFFSET 3.192009 0.000000 0.000000
										CHANNELS 3 Xrotation Yrotation Zrotation
										JOINT newVegas:LeftHandIndex3
										{
											OFFSET 3.835129 0.000000 0.000000
											CHANNELS 3 Xrotation Yrotation Zrotation
											End Site
											{
												OFFSET -0.034599 3.816971 0.371180
											}
										}
									}
								}
								JOINT newVegas:LeftHandMiddle1
								{
									OFFSET 18.476105 0.000000 0.000000
									CHANNELS 3 Xrotation Yrotation Zrotation
									JOINT newVegas:LeftHandMiddle2
									{
										OFFSET 3.324875 0.000000 0.000000
										CHANNELS 3 Xrotation Yrotation Zrotation
										JOINT newVegas:LeftHandMiddle3
										{
											OFFSET 4.596550 0.000000 0.000000
											CHANNELS 3 Xrotation Yrotation Zrotation
											End Site
											{
												OFFSET 0.057701 4.578827 0.399218
											}
										}
									}
								}
								JOINT newVegas:LeftHandRing1
								{
									OFFSET 17.732719 0.121887 -4.201567
									CHANNELS 3 Xrotation Yrotation Zrotation
									JOINT newVegas:LeftHandRing2
									{
										OFFSET 2.733170 0.000000 0.000000
										CHANNELS 3 Xrotation Yrotation Zrotation
										JOINT newVegas:LeftHandRing3
										{
											OFFSET 3.178268 0.000000 0.000000
											CHANNELS 3 Xrotation Yrotation Zrotation
											End Site
											{
												OFFSET 0.119102 3.170624 0.185394
											}
										}
									}
								}
								JOINT newVegas:LeftHandPinky1
								{
									OFFSET 15.989624 -0.606689 -7.535461
									CHANNELS 3 Xrotation Yrotation Zrotation
									JOINT newVegas:LeftHandPinky2
									{
										OFFSET 2.538986 0.000000 0.000000
										CHANNELS 3 Xrotation Yrotation Zrotation
										JOINT newVegas:LeftHandPinky3
										{
											OFFSET 2.593102 0.000000 0.000000
											CHANNELS 3 Xrotation Yrotation Zrotation
											End Site
											{
												OFFSET -0.150902 2.584198 0.152708
											}
										}
									}
								}
							}
							JOINT newVegas:Left_Sleeve
							{
								OFFSET 0.267448 -0.649796 0.577675
								CHANNELS 3 Xrotation Yrotation Zrotation
								End Site
								{
									OFFSET 0.000000 15.991241 0.000000
								}
							}
							JOINT newVegas:Left_CapeC
							{
								OFFSET 15.715958 -8.608795 -6.935905
								CHANNELS 3 Xrotation Yrotation Zrotation
								JOINT newVegas:Left_CapeC1
								{
									OFFSET 0.000000 -8.688499 0.000000
									CHANNELS 3 Xrotation Yrotation Zrotation
									End Site
									{
										OFFSET 0.000000 8.688499 0.000000
									}
								}
							}
						}
						JOINT newVegas:Left_CapeB
						{
							OFFSET 26.118385 -8.608795 -7.079235
							CHANNELS 3 Xrotation Yrotation Zrotation
							JOINT newVegas:Left_CapeB1
							{
								OFFSET 0.000000 -8.688499 0.000000
								CHANNELS 3 Xrotation Yrotation Zrotation
								End Site
								{
									OFFSET 0.000000 8.688499 0.000000
								}
							}
						}
						JOINT newVegas:Left_CapeA
						{
							OFFSET 5.115639 -8.608795 -10.395809
							CHANNELS 3 Xrotation Yrotation Zrotation
							JOINT newVegas:Left_CapeA1
							{
								OFFSET 0.000000 -8.688499 0.000000
								CHANNELS 3 Xrotation Yrotation Zrotation
								End Site
								{
									OFFSET 0.000000 8.688499 0.000000
								}
							}
						}
					}
				}
				JOINT newVegas:RightShoulder
				{
					OFFSET -15.263000 10.923401 -0.547700
					CHANNELS 3 Xrotation Yrotation Zrotation
					JOINT newVegas:RightArm
					{
						OFFSET -25.438599 -2.830597 -13.032500
						CHANNELS 3 Xrotation Yrotation Zrotation
						JOINT newVegas:RightForeArm
						{
							OFFSET -29.960503 0.000000 0.000000
							CHANNELS 3 Xrotation Yrotation Zrotation
							JOINT newVegas:RightHand
							{
								OFFSET -27.849251 0.000000 0.000000
								CHANNELS 3 Xrotation Yrotation Zrotation
								JOINT newVegas:RightHandThumb1
								{
									OFFSET -4.487587 -3.305161 6.305391
									CHANNELS 3 Xrotation Yrotation Zrotation
									JOINT newVegas:RightHandThumb2
									{
										OFFSET -5.480453 -3.164139 3.164143
										CHANNELS 3 Xrotation Yrotation Zrotation
										JOINT newVegas:RightHandThumb3
										{
											OFFSET -5.159721 -2.978973 2.978967
											CHANNELS 3 Xrotation Yrotation Zrotation
											End Site
											{
												OFFSET -2.494507 5.926697 1.738678
											}
										}
									}
								}
								JOINT newVegas:RightHandIndex1
								{
									OFFSET -18.578728 -0.527832 5.208049
									CHANNELS 3 Xrotation Yrotation Zrotation
									JOINT newVegas:RightHandIndex2
									{
										OFFSET -3.192009 0.000000 0.000000
										CHANNELS 3 Xrotation Yrotation Zrotation
										JOINT newVegas:RightHandIndex3
										{
											OFFSET -3.835129 0.000000 0.000000
											CHANNELS 3 Xrotation Yrotation Zrotation
											End Site
											{
												OFFSET 0.034599 3.816971 0.371180
											}
										}
									}
								}
								JOINT newVegas:RightHandMiddle1
								{
									OFFSET -18.476105 0.000000 0.000000
									CHANNELS 3 Xrotation Yrotation Zrotation
									JOINT newVegas:RightHandMiddle2
									{
										OFFSET -3.324875 0.000000 0.000000
										CHANNELS 3 Xrotation Yrotation Zrotation
										JOINT newVegas:RightHandMiddle3
										{
											OFFSET -4.596550 0.000000 0.000000
											CHANNELS 3 Xrotation Yrotation Zrotation
											End Site
											{
												OFFSET -0.057701 4.578827 0.399218
											}
										}
									}
								}
								JOINT newVegas:RightHandRing1
								{
									OFFSET -17.732719 0.121887 -4.201567
									CHANNELS 3 Xrotation Yrotation Zrotation
									JOINT newVegas:RightHandRing2
									{
										OFFSET -2.733170 0.000000 0.000000
										CHANNELS 3 Xrotation Yrotation Zrotation
										JOINT newVegas:RightHandRing3
										{
											OFFSET -3.178268 0.000000 0.000000
											CHANNELS 3 Xrotation Yrotation Zrotation
											End Site
											{
												OFFSET -0.119102 3.170624 0.185394
											}
										}
									}
								}
								JOINT newVegas:RightHandPinky1
								{
									OFFSET -15.989624 -0.606689 -7.535461
									CHANNELS 3 Xrotation Yrotation Zrotation
									JOINT newVegas:RightHandPinky2
									{
										OFFSET -2.538986 0.000000 0.000000
										CHANNELS 3 Xrotation Yrotation Zrotation
										JOINT newVegas:RightHandPinky3
										{
											OFFSET -2.593102 0.000000 0.000000
											CHANNELS 3 Xrotation Yrotation Zrotation
											End Site
											{
												OFFSET 0.150902 2.584198 0.152708
											}
										}
									}
								}
							}
							JOINT newVegas:Right_CapeC
							{
								OFFSET -15.715958 -8.608795 -6.935905
								CHANNELS 3 Xrotation Yrotation Zrotation
								JOINT newVegas:Right_CapeC1
								{
									OFFSET 0.000000 -8.688499 0.000000
									CHANNELS 3 Xrotation Yrotation Zrotation
									End Site
									{
										OFFSET 0.000000 8.688499 0.000000
									}
								}
							}
							JOINT newVegas:Right_Sleeve
							{
								OFFSET -0.267448 -0.649994 0.577675
								CHANNELS 3 Xrotation Yrotation Zrotation
								End Site
								{
									OFFSET 0.000000 15.991302 0.000000
								}
							}
						}
						JOINT newVegas:Right_CapeA
						{
							OFFSET -5.115540 -8.608795 -10.395824
							CHANNELS 3 Xrotation Yrotation Zrotation
							JOINT newVegas:Right_CapeA1
							{
								OFFSET 0.000000 -8.688499 0.000000
								CHANNELS 3 Xrotation Yrotation Zrotation
								End Site
								{
									OFFSET 0.000000 8.688499 0.000000
								}
							}
						}
						JOINT newVegas:Right_CapeB
						{
							OFFSET -26.118187 -8.608795 -7.079266
							CHANNELS 3 Xrotation Yrotation Zrotation
							JOINT newVegas:Right_CapeB1
							{
								OFFSET 0.000000 -8.688499 0.000000
								CHANNELS 3 Xrotation Yrotation Zrotation
								End Site
								{
									OFFSET 0.000000 8.688499 0.000000
								}
							}
						}
					}
				}
				JOINT newVegas:Left_Collar
				{
					OFFSET 18.625099 8.655502 8.828100
					CHANNELS 3 Xrotation Yrotation Zrotation
					JOINT newVegas:Left_Collar1
					{
						OFFSET 14.783401 10.540405 -1.259500
						CHANNELS 3 Xrotation Yrotation Zrotation
						End Site
						{
							OFFSET 0.000000 18.199875 0.000000
						}
					}
				}
				JOINT newVegas:Collar_Back
				{
					OFFSET 0.000000 15.630707 -20.132601
					CHANNELS 3 Xrotation Yrotation Zrotation
					End Site
					{
						OFFSET 0.000000 22.523010 0.000000
					}
				}
				JOINT newVegas:Left_Peck
				{
					OFFSET 17.239599 -5.132599 25.482599
					CHANNELS 3 Xrotation Yrotation Zrotation
					End Site
					{
						OFFSET 0.000000 22.523010 0.000000
					}
				}
				JOINT newVegas:Right_Peck
				{
					OFFSET -17.239599 -5.132202 25.482599
					CHANNELS 3 Xrotation Yrotation Zrotation
					End Site
					{
						OFFSET 0.000000 22.523010 0.000000
					}
				}
				JOINT newVegas:Right_Collar
				{
					OFFSET -18.625099 8.655792 8.828100
					CHANNELS 3 Xrotation Yrotation Zrotation
					JOINT newVegas:Right_Collar1
					{
						OFFSET -14.783401 10.539993 -1.259500
						CHANNELS 3 Xrotation Yrotation Zrotation
						End Site
						{
							OFFSET 0.000000 18.199631 0.000000
						}
					}
				}
			}
		}
		JOINT newVegas:Belly
		{
			OFFSET 0.000000 -6.540398 9.014299
			CHANNELS 3 Xrotation Yrotation Zrotation
			End Site
			{
				OFFSET 0.000000 11.566666 0.000000
			}
		}
	}
	JOINT newVegas:ElvisFacialAnim_Joint
	{
		OFFSET 1.000000 -95.330101 -8.825800
		CHANNELS 3 Xrotation Yrotation Zrotation
		End Site
		{
			OFFSET 0.000000 35.315800 0.000000
		}
	}
}
MOTION
Frames: 4
Frame Time: 0.033333
0.633167 46.091370 -37.839165 -11.825999 -0.333159 -2.752059 -0.000001 0.000000 -0.000000 -95.082599 -9.851993 12.748739 49.266646 1.355807 2.176590 44.109218 -6.891883 -22.207585 -0.000001 0.000000 0.000001 -0.000005 -0.000000 -0.000001 -107.484378 23.108191 -9.122377 120.649732 -4.396320 1.863544 3.609085 3.021508 16.296394 -0.000000 -0.000002 -0.000000 -0.000001 -0.000001 -0.000002 46.083256 -2.451171 -3.332966 2.206937 -0.807264 -0.056067 2.206680 -0.821036 -0.081183 5.995632 1.081046 -0.515334 5.995643 1.081044 -0.515333 0.000002 0.000000 0.000000 5.995681 1.081048 -0.515335 5.995686 1.081047 -0.515338 0.000001 -0.000000 -0.000000 0.000002 0.000000 0.000000 8.392019 -11.997333 3.379543 -41.913610 -30.468487 -26.540385 7.674565 -51.497041 17.142375 -34.361906 5.337972 -8.676727 34.639974 -17.614114 25.097433 -22.657074 25.695884 2.248798 0.000004 -0.000004 -0.000003 19.800597 -15.249056 15.613227 -1.708890 3.699546 -22.128816 -0.000002 -0.000003 0.000003 2.511974 4.517098 1.214111 0.001925 0.005252 -29.921409 -0.000000 0.000001 0.000000 6.726357 23.433874 -3.223564 0.766692 0.605514 -52.237960 0.000004 0.000001 0.000001 9.575857 36.479074 -15.489387 0.010062 0.024626 -48.999791 0.000004 -0.000005 0.000001 0.000001 0.000000 -0.000000 0.000001 0.000000 -0.000000 -0.000000 0.000000 0.000000 -0.000001 0.000001 -0.000003 0.000000 0.000002 -0.000003 -0.000001 0.000001 -0.000003 -0.000001 0.000002 -0.000004 -0.612706 23.005076 -0.478467 -51.242784 33.550265 39.043014 -4.284215 38.375906 -5.626006 58.378610 -22.022405 53.003832 9.347176 2.810542 -11.364521 16.169040 -43.266011 15.843554 -0.000000 -0.000003 0.000001 17.076796 -0.396559 31.924335 -0.204393 -0.284205 112.811571 -0.000004 -0.000000 -0.000001 9.205462 -5.035888 102.738080 0.014979 -0.019198 61.018533 -0.000001 -0.000002 0.000002 5.569133 -8.935214 107.329094 0.547967 -0.005778 41.263697 -0.000001 0.000001 -0.000001 6.511261 -17.148271 98.228038 0.007401 -0.015729 43.845720 0.000000 -0.000002 -0.000003 0.000002 0.000001 -0.000000 0.000004 -0.000000 -0.000000 0.000002 0.000000 -0.000000 0.000001 0.000001 -0.000003 0.000001 0.000002 -0.000003 0.000001 0.000001 -0.000003 0.000001 0.000001 -0.000003 -0.000001 0.000001 0.000000 -0.000001 0.000001 0.000000 -0.000001 0.000001 0.000000 -0.000001 0.000001 0.000000 -0.000001 0.000001 0.000000 -0.000001 0.000001 0.000000 -0.000001 0.000001 0.000000 -0.000001 0.000000 -0.000000 -0.000001 0.000000 -0.000000 
0.234179 42.402184 -40.512276 -14.950529 2.872368 -3.089319 -0.000000 -0.000000 -0.000000 -94.539940 -8.376634 10.958293 44.182967 1.241794 2.135958 46.029065 -7.106111 -21.453392 0.000000 0.000001 -0.000000 -0.000001 -0.000000 -0.000002 -112.546983 23.162095 -10.340203 121.427895 -2.612953 1.971606 9.902549 2.967791 12.478736 -0.000000 0.000000 -0.000000 0.000000 -0.000001 -0.000003 46.297703 -2.163392 -2.608852 2.216150 -0.878765 -0.011700 2.215037 -0.889618 -0.035370 5.998098 0.954656 -0.542903 5.998121 0.954657 -0.542903 -0.000003 0.000000 -0.000000 5.998115 0.954659 -0.542902 5.998120 0.954659 -0.542901 0.000000 0.000000 -0.000000 -0.000003 0.000000 -0.000000 8.701255 -12.989539 4.248482 -40.629117 -29.201039 -23.349417 7.053359 -51.224790 16.450014 -31.681546 3.121768 -11.130790 34.639977 -17.614131 25.097440 -22.657063 25.695892 2.248774 -0.000002 -0.000002 0.000000 19.800602 -15.249077 15.613234 -1.708891 3.699553 -22.128840 0.000001 -0.000001 0.000003 2.511971 4.517100 1.214112 0.001918 0.005236 -29.921409 -0.000001 0.000001 -0.000001 6.726357 23.433872 -3.223552 0.766660 0.605501 -52.237983 -0.000000 0.000006 0.000001 9.575859 36.479053 -15.489399 0.010064 0.024638 -48.999781 0.000002 -0.000002 -0.000000 0.000000 0.000000 -0.000001 0.000000 0.000000 -0.000001 -0.000001 0.000001 -0.000001 0.000002 -0.000002 0.000001 0.000003 -0.000003 0.000001 0.000002 -0.000002 0.000001 0.000002 -0.000002 0.000001 -0.828669 20.853654 -0.454209 -52.064555 34.092544 40.023355 -3.699404 39.823285 -8.037673 61.766357 -19.914636 56.807329 9.347177 2.810544 -11.364523 16.169037 -43.266014 15.843556 0.000001 -0.000003 -0.000003 17.076801 -0.396563 31.924338 -0.204392 -0.284203 112.811571 0.000000 0.000002 -0.000001 9.205463 -5.035888 102.738080 0.014977 -0.019198 61.018533 0.000002 0.000005 -0.000000 5.569136 -8.935213 107.329094 0.547967 -0.005781 41.263693 0.000002 0.000002 0.000000 6.511265 -17.148267 98.228038 0.007397 -0.015728 43.845720 0.000003 -0.000002 -0.000001 0.000002 0.000000 -0.000000 0.000002 0.000000 0.000000 0.000002 0.000000 0.000000 0.000001 -0.000002 0.000002 0.000001 -0.000001 -0.000000 0.000001 -0.000002 0.000002 0.000001 -0.000001 0.000001 0.000002 0.000000 0.000000 0.000002 0.000000 0.000000 0.000002 0.000000 0.000000 0.000002 0.000000 0.000000 0.000002 0.000000 0.000000 0.000002 0.000000 0.000000 0.000002 0.000000 0.000000 0.000000 -0.000000 -0.000000 -0.000000 -0.000000 -0.000000 
-0.184830 38.472031 -43.052460 -18.355017 6.312644 -3.428520 0.000001 0.000000 -0.000000 -92.656304 -6.133237 9.890275 37.292737 0.799398 1.519380 48.388697 -7.523605 -21.010997 -0.000001 -0.000001 0.000000 -0.000001 0.000000 -0.000000 -116.964271 23.650005 -12.537078 121.199863 0.782690 2.167555 16.722769 2.391767 10.078925 0.000000 -0.000002 0.000000 0.000001 0.000000 -0.000000 46.470657 -1.985018 -1.744814 2.222797 -1.001092 0.041113 2.220560 -1.010871 0.022591 5.989347 0.843090 -0.572332 5.989346 0.843089 -0.572330 -0.000001 -0.000000 -0.000000 5.989315 0.843085 -0.572327 5.989398 0.843089 -0.572336 0.000003 0.000000 0.000000 -0.000001 -0.000000 -0.000000 9.186962 -13.662758 5.599581 -39.796712 -28.186137 -20.723393 6.153272 -49.804148 15.434785 -29.210673 -0.291511 -13.568844 34.639970 -17.614156 25.097421 -22.657085 25.695916 2.248806 -0.000004 -0.000001 -0.000001 19.800582 -15.249075 15.613220 -1.708888 3.699558 -22.128836 -0.000001 0.000001 -0.000001 2.511954 4.517102 1.214109 0.001920 0.005238 -29.921399 -0.000002 -0.000000 0.000006 6.726356 23.433879 -3.223561 0.766669 0.605497 -52.237980 -0.000003 -0.000001 -0.000001 9.575855 36.479029 -15.489406 0.010069 0.024632 -48.999787 0.000001 0.000000 -0.000002 -0.000002 0.000000 -0.000000 -0.000002 0.000000 -0.000000 -0.000003 0.000000 -0.000000 0.000000 -0.000003 0.000001 0.000000 -0.000003 0.000000 0.000000 -0.000003 0.000001 0.000000 -0.000002 0.000001 -1.106664 19.206473 -0.572666 -52.314922 34.382366 40.087838 -3.155776 40.915333 -9.611562 64.402236 -18.274825 60.017726 9.347176 2.810545 -11.364520 16.169037 -43.266011 15.843563 0.000001 -0.000003 0.000001 17.076800 -0.396563 31.924342 -0.204392 -0.284206 112.811571 0.000001 0.000002 -0.000000 9.205460 -5.035883 102.738080 0.014977 -0.019199 61.018533 -0.000000 0.000000 -0.000001 5.569135 -8.935214 107.329094 0.547967 -0.005784 41.263700 0.000000 0.000001 0.000001 6.511263 -17.148267 98.228038 0.007401 -0.015733 43.845716 -0.000003 -0.000002 -0.000002 -0.000000 0.000000 0.000000 0.000003 0.000001 0.000000 -0.000000 0.000000 0.000000 0.000000 0.000000 -0.000002 0.000000 0.000001 -0.000002 0.000000 0.000000 -0.000002 0.000000 0.000002 -0.000002 0.000001 0.000000 0.000001 0.000001 0.000000 0.000001 0.000001 0.000000 0.000001 0.000001 0.000000 0.000001 0.000001 0.000000 0.000001 0.000001 0.000000 0.000001 0.000001 0.000000 0.000001 -0.000001 0.000000 0.000000 0.000001 0.000000 -0.000000 
-0.703075 34.216438 -45.297459 -22.248894 9.375594 -3.976683 -0.000001 0.000000 -0.000000 -89.352644 -3.765220 10.292859 28.882773 0.957637 0.081200 51.739342 -8.502774 -21.004773 -0.000001 0.000001 -0.000000 -0.000000 0.000001 0.000002 -121.144661 22.958453 -15.368537 120.811129 3.191916 2.106497 24.047107 1.262197 6.941235 -0.000000 0.000001 0.000000 0.000001 0.000001 0.000000 46.370137 -1.024985 -1.233953 2.203491 -0.955530 0.245621 2.199051 -0.980006 0.228054 6.000060 0.726686 -0.704208 6.000071 0.726686 -0.704209 0.000002 -0.000001 0.000000 6.000056 0.726686 -0.704205 6.000103 0.726700 -0.704207 0.000003 0.000000 -0.000000 0.000002 -0.000001 0.000000 9.713344 -13.529165 6.989670 -40.769498 -29.398640 -20.135854 5.246442 -45.549487 13.240541 -26.588736 -5.757155 -15.687818 34.639970 -17.614155 25.097421 -22.670610 25.667707 2.247136 -0.000003 0.000001 -0.000003 19.818856 -15.331353 15.619908 -1.708895 3.699564 -22.128836 0.000002 -0.000003 -0.000000 2.512692 4.462150 1.213854 0.001912 0.005230 -29.921406 -0.000001 -0.000001 -0.000001 6.724066 23.402451 -3.223010 0.766675 0.605510 -52.237977 0.000000 0.000001 -0.000003 9.575865 36.479060 -15.489409 0.010059 0.024643 -48.999791 -0.000000 -0.000001 -0.000003 -0.000002 0.000000 0.000000 -0.000002 0.000000 0.000000 -0.000003 0.000001 0.000000 0.000000 0.000001 -0.000002 0.000000 -0.000000 -0.000002 0.000000 0.000001 -0.000002 0.000000 0.000001 -0.000002 -1.364704 17.682586 -0.773443 -51.412439 33.753005 39.342153 -2.496506 42.618693 -10.935642 67.351266 -16.743596 63.229848 9.347178 2.810543 -11.364522 16.169044 -43.266011 15.843558 0.000002 -0.000002 -0.000003 17.076798 -0.396564 31.924338 -0.204392 -0.284205 112.811571 -0.000000 -0.000000 0.000000 9.205462 -5.035885 102.738080 0.014978 -0.019197 61.018533 0.000000 0.000003 0.000001 5.569132 -8.935210 107.329094 0.547971 -0.005781 41.263697 0.000001 -0.000001 -0.000003 6.511256 -17.148266 98.228038 0.007399 -0.015729 43.845720 -0.000001 -0.000000 -0.000000 0.000004 -0.000001 0.000000 0.000003 -0.000000 0.000000 0.000004 -0.000001 0.000000 0.000002 -0.000003 0.000001 0.000002 -0.000003 0.000002 0.000002 -0.000003 0.000001 0.000002 -0.000003 0.000002 -0.000002 0.000000 -0.000000 -0.000002 0.000000 -0.000000 -0.000002 0.000000 -0.000000 -0.000002 0.000000 -0.000000 -0.000002 0.000000 -0.000000 -0.000002 0.000000 -0.000000 -0.000002 0.000000 -0.000000 0.000000 -0.000000 0.000000 -0.000001 0.000000 -0.000000 
